<svg xmlns="http://www.w3.org/2000/svg" width="400" height="380" viewBox="0 0 400 380"><g fill="none" opacity=".76"><rect width="134" height="127" x="132" y=".439" fill="#6AD4DD"/><path fill="#8ADDE4" d="M122.411275,0.439252336 L134,0.439252336 L134,127.439252 L0,127.439252 L0,121.762006 C0.0789356281,54.7454285 54.8565967,0.454868336 122.411275,0.439252336 L122.411275,0.439252336 Z"/><path fill="#ACE7EB" d="M0,125.439252 L134,125.439252 L134,252.439252 L127.277114,252.439252 C56.9839048,252.439252 0,195.897139 0,126.148908 L0,125.439252 L0,125.439252 Z"/><path fill="#CDF0F2" d="M1,252.581025 L135,252.581025 L135,379.439252 L123.413749,379.439252 C55.8065024,379.439252 1,325.118367 1,258.110161 L1,252.439252 L1,252.581025 Z"/><rect width="134" height="127" x="134" y="252.439" fill="#ACE7EB"/><path fill="#8ADDE4" d="M266,252.439252 L400,252.439252 L400,258.110161 C400,290.288638 387.102875,321.149167 364.145843,343.902784 C341.188813,366.656403 310.052397,379.439252 277.586251,379.439252 L266,379.439252 L266,252.439252 L266,252.439252 Z"/><path fill="#6AD4DD" d="M266,125.439252 L272.722886,125.439252 C343.016097,125.439252 400,181.981365 400,251.729597 L400,252.439252 L266,252.439252 L266,125.439252 Z"/><path fill="#49CBD5" d="M266,0.439252336 L277.586251,0.439252336 C345.193496,0.439252336 400,54.7601369 400,121.768344 L400,127.439252 L266,127.439252 L266,0.439252336 Z"/></g></svg>