<svg width="256" height="256" viewBox="0 0 256 256" xmlns="http://www.w3.org/2000/svg"><g fill-rule="nonzero" fill="none"><path fill="#000930" d="M0 0h256v256H0z"/><g opacity=".76"><path fill="#38A0FF" d="M104.84 61h46.84v44.74h-46.84z"/><path d="M100.78 61h4.05v44.74H58v-2c.028-23.609 19.171-42.734 42.78-42.74z" fill="#5AACFF"/><path d="M58 105.74h46.84v44.74h-2.35c-24.571 0-44.49-19.919-44.49-44.49v-.25z" fill="#7EBCFF"/><path d="M58 150.48h46.84v44.74h-4.05c-23.632 0-42.79-19.158-42.79-42.79v-2 .05z" fill="#9FCCFF"/><path fill="#7EBCFF" d="M104.84 150.48h46.84v44.74h-46.84z"/><path d="M151.68 150.48h46.84v2a42.79 42.79 0 01-42.79 42.79h-4.05v-44.79z" fill="#5AACFF"/><path d="M151.68 105.74h2.35c24.571 0 44.49 19.919 44.49 44.49v.25h-46.84v-44.74z" fill="#38A0FF"/><path d="M151.68 61h4.05c23.632 0 42.79 19.158 42.79 42.79v2h-46.84V61z" fill="#0089FF"/></g></g></svg>
